<?xml version="1.0" standalone="no"?>
<!DOCTYPE svg PUBLIC "-//W3C//DTD SVG 20010904//EN"
 "http://www.w3.org/TR/2001/REC-SVG-20010904/DTD/svg10.dtd">
<svg version="1.0" xmlns="http://www.w3.org/2000/svg"
 width="512.000000pt" height="512.000000pt" viewBox="0 0 512.000000 512.000000"
 preserveAspectRatio="xMidYMid meet">

<g transform="translate(0.000000,512.000000) scale(0.100000,-0.100000)"
fill="#000000" stroke="none">
<path d="M1425 4444 c-424 -245 -775 -448 -781 -452 -12 -7 1167 -697 1190
-697 14 0 1556 887 1556 895 0 4 -198 120 -1149 672 l-46 27 -770 -445z m1483
-204 c131 -75 132 -75 130 -109 -3 -33 -9 -38 -141 -114 l-137 -79 -138 80
c-130 76 -137 81 -139 113 -3 34 -1 35 130 111 72 43 139 76 147 75 9 -1 75
-36 148 -77z m-449 -251 c134 -77 141 -83 141 -113 0 -30 -7 -35 -139 -112
l-139 -82 -141 81 c-134 77 -141 83 -141 113 0 29 7 35 138 112 75 44 138 81
139 81 1 1 65 -36 142 -80z m-431 -259 c132 -75 132 -75 130 -109 -3 -33 -9
-38 -137 -113 -73 -43 -136 -78 -140 -78 -3 0 -67 35 -141 78 -131 76 -135 79
-135 112 0 33 4 36 130 111 72 43 137 77 145 76 8 -1 75 -36 148 -77z"/>
<path d="M2661 4223 c-43 -21 -59 -55 -42 -87 41 -75 241 -75 282 0 17 32 -1
66 -47 88 -45 21 -148 21 -193 -1z m159 -17 c0 -7 -10 -17 -22 -21 -21 -6 -20
-7 10 -15 43 -10 60 -26 45 -41 -9 -9 -18 -8 -37 5 -33 21 -39 20 -51 -6 -12
-27 -65 -39 -65 -15 0 8 10 18 23 22 20 6 19 7 -11 15 -43 10 -60 26 -45 41 9
9 19 8 39 -6 27 -17 28 -17 46 9 21 28 68 37 68 12z"/>
<path d="M2233 3970 c-80 -36 -79 -95 0 -131 76 -34 182 -18 221 34 16 22 18
30 8 52 -15 33 -84 65 -142 65 -25 0 -64 -9 -87 -20z m145 -18 c2 -7 -5 -16
-17 -19 -12 -3 -21 -9 -21 -14 0 -5 3 -8 8 -7 20 6 72 -13 72 -27 0 -18 -23
-20 -50 -3 -16 10 -23 8 -45 -16 -26 -28 -55 -32 -63 -8 -2 6 7 16 20 21 21 8
20 9 -19 20 -26 7 -43 18 -43 26 0 17 35 20 45 5 10 -15 45 -12 45 5 0 30 58
45 68 17z"/>
<path d="M1780 3708 c-47 -33 -57 -51 -41 -81 41 -76 249 -76 284 0 25 55 -43
103 -147 103 -49 0 -70 -5 -96 -22z m160 -12 c0 -7 -10 -17 -22 -21 -22 -6
-21 -7 8 -14 38 -9 54 -19 54 -32 0 -19 -31 -21 -50 -4 -19 17 -21 17 -41 -9
-12 -15 -30 -26 -45 -26 -30 0 -31 13 -1 33 l22 16 -26 0 c-36 1 -68 26 -52
42 9 9 17 8 37 -5 30 -19 46 -21 46 -3 0 7 5 18 12 25 17 17 58 15 58 -2z"/>
<path d="M4430 3870 c0 -38 -3 -70 -6 -70 -3 0 -35 16 -70 36 -88 49 -94 44
-94 -96 0 -87 3 -109 15 -114 13 -4 15 11 17 97 l2 102 5 -102 c5 -76 9 -100
18 -95 8 5 13 41 15 95 l3 88 48 -30 47 -31 0 -84 0 -85 -147 -85 -148 -85 -3
66 c-3 74 -13 93 -42 86 -18 -5 -20 0 -20 56 0 49 -3 59 -15 55 -10 -4 -15
-26 -18 -77 l-3 -72 -2 71 c-1 53 -6 73 -17 78 -15 5 -18 -16 -19 -111 0 -13
-1 -23 -3 -23 -1 0 -29 16 -62 35 -65 38 -96 44 -105 19 -3 -9 -6 -60 -6 -114
0 -77 3 -99 15 -103 12 -5 15 10 18 86 l3 92 2 -94 c2 -80 4 -92 18 -87 9 3
18 6 20 6 2 0 4 38 4 85 0 47 2 85 4 85 2 0 24 -12 50 -26 l46 -26 0 -483 0
-484 -30 -18 c-40 -23 -48 -67 -22 -125 21 -49 73 -98 103 -98 11 0 33 7 49
15 18 9 31 11 35 5 14 -23 22 -6 24 49 1 41 -3 62 -14 71 -21 17 -21 108 0
116 11 5 15 21 15 60 0 44 -3 52 -15 48 -14 -6 -15 13 -13 151 l3 157 145 84
145 84 3 -115 c1 -63 5 -115 8 -115 3 0 23 10 44 23 l40 22 0 376 c0 207 -3
430 -7 497 -6 114 -7 120 -25 111 -12 -6 -25 -6 -38 1 -19 10 -20 8 -20 -60z
m-2 -516 l-3 -117 -144 -83 c-79 -46 -145 -84 -147 -84 -2 0 -4 53 -4 118 l0
117 143 82 c78 45 146 82 150 82 4 1 6 -51 5 -115z m-400 -890 c44 -30 66
-106 40 -132 -21 -21 -45 -13 -77 23 -23 27 -31 45 -31 74 0 21 3 41 7 44 11
12 37 8 61 -9z"/>
<path d="M2879 2980 l-484 -280 0 -526 0 -526 -115 -67 c-63 -36 -188 -108
-277 -159 l-162 -93 -368 213 c-202 118 -476 277 -608 353 -132 75 -293 169
-357 207 l-118 70 0 39 c0 21 -3 39 -6 39 -3 0 -34 -17 -69 -37 l-65 -38 0
-51 0 -50 796 -463 c438 -254 799 -461 803 -459 5 2 142 80 305 173 l297 170
-3 53 c-2 28 0 52 4 52 4 0 33 15 65 34 32 19 236 136 453 262 217 125 413
238 435 252 22 14 37 21 33 17 -9 -9 45 -55 63 -55 8 1 86 43 174 94 l160 94
0 48 0 49 -85 51 -85 51 -5 -61 -5 -61 -105 -62 c-58 -34 -111 -62 -117 -62
-10 -1 -13 103 -13 489 l0 489 -28 15 c-29 15 -34 12 -513 -264z m401 -388 l0
-449 -362 -209 c-199 -115 -368 -210 -375 -212 -11 -3 -13 83 -13 447 l0 451
76 42 c42 24 205 118 362 209 158 92 293 167 300 168 9 1 12 -95 12 -447z
m520 -217 c0 -2 -10 -9 -22 -15 -22 -11 -22 -10 -4 4 21 17 26 19 26 11z
m-260 -150 c0 -2 -10 -9 -22 -15 -22 -11 -22 -10 -4 4 21 17 26 19 26 11z
m-3240 -81 c0 -2 -9 0 -20 6 -11 6 -20 13 -20 16 0 2 9 0 20 -6 11 -6 20 -13
20 -16z m70 -40 c0 -2 -9 0 -20 6 -11 6 -20 13 -20 16 0 2 9 0 20 -6 11 -6 20
-13 20 -16z m70 -40 c0 -2 -13 2 -30 11 -16 9 -30 18 -30 21 0 2 14 -2 30 -11
17 -9 30 -18 30 -21z m50 -30 c0 -2 -9 0 -20 6 -11 6 -20 13 -20 16 0 2 9 0
20 -6 11 -6 20 -13 20 -16z m70 -40 c0 -2 -13 2 -30 11 -16 9 -30 18 -30 21 0
2 14 -2 30 -11 17 -9 30 -18 30 -21z m50 -30 c0 -2 -9 0 -20 6 -11 6 -20 13
-20 16 0 2 9 0 20 -6 11 -6 20 -13 20 -16z m70 -40 c0 -2 -13 2 -30 11 -16 9
-30 18 -30 21 0 2 14 -2 30 -11 17 -9 30 -18 30 -21z m50 -30 c0 -2 -9 0 -20
6 -11 6 -20 13 -20 16 0 2 9 0 20 -6 11 -6 20 -13 20 -16z m70 -40 c0 -2 -9 0
-20 6 -11 6 -20 13 -20 16 0 2 9 0 20 -6 11 -6 20 -13 20 -16z m50 -30 c0 -2
-9 0 -20 6 -11 6 -20 13 -20 16 0 2 9 0 20 -6 11 -6 20 -13 20 -16z m70 -40
c0 -2 -9 0 -20 6 -11 6 -20 13 -20 16 0 2 9 0 20 -6 11 -6 20 -13 20 -16z
m120 -70 c0 -2 -9 0 -20 6 -11 6 -20 13 -20 16 0 2 9 0 20 -6 11 -6 20 -13 20
-16z m70 -40 c0 -2 -9 0 -20 6 -11 6 -20 13 -20 16 0 2 9 0 20 -6 11 -6 20
-13 20 -16z m50 -30 c0 -2 -9 0 -20 6 -11 6 -20 13 -20 16 0 2 9 0 20 -6 11
-6 20 -13 20 -16z m70 -40 c0 -2 -9 0 -20 6 -11 6 -20 13 -20 16 0 2 9 0 20
-6 11 -6 20 -13 20 -16z m50 -30 c0 -2 -9 0 -20 6 -11 6 -20 13 -20 16 0 2 9
0 20 -6 11 -6 20 -13 20 -16z m70 -40 c0 -2 -9 0 -20 6 -11 6 -20 13 -20 16 0
2 9 0 20 -6 11 -6 20 -13 20 -16z m1030 21 c0 -2 -10 -9 -22 -15 -22 -11 -22
-10 -4 4 21 17 26 19 26 11z m-980 -51 c0 -2 -9 0 -20 6 -11 6 -20 13 -20 16
0 2 9 0 20 -6 11 -6 20 -13 20 -16z m70 -40 c0 -2 -9 0 -20 6 -11 6 -20 13
-20 16 0 2 9 0 20 -6 11 -6 20 -13 20 -16z m70 -40 c0 -2 -9 0 -20 6 -11 6
-20 13 -20 16 0 2 9 0 20 -6 11 -6 20 -13 20 -16z m50 -30 c0 -2 -9 0 -20 6
-11 6 -20 13 -20 16 0 2 9 0 20 -6 11 -6 20 -13 20 -16z m530 11 c0 -2 -10 -9
-22 -15 -22 -11 -22 -10 -4 4 21 17 26 19 26 11z m-460 -51 c0 -2 -9 0 -20 6
-11 6 -20 13 -20 16 0 2 9 0 20 -6 11 -6 20 -13 20 -16z m50 -30 c0 -2 -9 0
-20 6 -11 6 -20 13 -20 16 0 2 9 0 20 -6 11 -6 20 -13 20 -16z m70 -40 c0 -2
-9 0 -20 6 -11 6 -20 13 -20 16 0 2 9 0 20 -6 11 -6 20 -13 20 -16z m50 -30
c0 -2 -9 0 -20 6 -11 6 -20 13 -20 16 0 2 9 0 20 -6 11 -6 20 -13 20 -16z"/>
<path d="M2610 2500 c-8 -5 -12 -11 -9 -14 2 -3 11 -1 19 4 8 5 12 11 9 14 -2
3 -11 1 -19 -4z"/>
<path d="M2870 2350 c-8 -5 -12 -11 -9 -14 2 -3 11 -1 19 4 8 5 12 11 9 14 -2
3 -11 1 -19 -4z"/>
<path d="M3158 2212 c-16 -9 -28 -20 -28 -25 0 -9 56 19 65 33 9 15 -6 12 -37
-8z"/>
<path d="M2597 2193 c-12 -12 -7 -22 8 -17 8 4 15 10 15 15 0 11 -14 12 -23 2z"/>
<path d="M2892 2059 c-18 -12 -31 -24 -28 -26 7 -7 66 26 66 37 0 13 0 13 -38
-11z"/>
<path d="M4490 2485 c0 -8 5 -15 10 -15 6 0 10 7 10 15 0 8 -4 15 -10 15 -5 0
-10 -7 -10 -15z"/>
<path d="M4432 2431 c1 -16 5 -28 9 -26 6 5 0 55 -7 55 -3 0 -3 -13 -2 -29z"/>
<path d="M4847 2354 c-22 -12 -26 -18 -17 -29 10 -12 17 -11 46 2 26 13 31 19
23 30 -14 16 -17 16 -52 -3z"/>
<path d="M4495 2227 c-4 -10 -5 -21 -1 -24 10 -10 18 4 13 24 -4 17 -4 17 -12
0z"/>
<path d="M4431 2173 c-1 -25 14 -39 25 -22 4 7 3 9 -4 5 -6 -3 -12 3 -15 16
-4 23 -4 23 -6 1z"/>
<path d="M4468 2134 c-50 -27 -28 -55 22 -29 26 13 29 19 19 31 -6 8 -12 14
-13 14 0 -1 -13 -8 -28 -16z"/>
<path d="M1103 1103 c-22 -15 -32 -43 -15 -43 16 1 44 29 40 43 -3 13 -6 13
-25 0z"/>
<path d="M4243 1107 c-13 -5 -23 -19 -23 -29 0 -16 3 -17 21 -8 19 11 36 37
28 44 -2 2 -14 -1 -26 -7z"/>
<path d="M4760 872 c-36 -21 -67 -46 -68 -57 -4 -15 4 -13 54 15 68 37 88 54
83 69 -2 6 -33 -6 -69 -27z"/>
<path d="M1610 862 c-36 -21 -66 -46 -68 -56 -3 -16 4 -14 55 14 68 39 87 54
82 69 -3 7 -31 -4 -69 -27z"/>
<path d="M3772 834 c-12 -8 -22 -22 -22 -29 0 -12 5 -12 25 -3 14 6 25 19 25
30 0 22 0 22 -28 2z"/>
<path d="M628 829 c-18 -10 -25 -39 -10 -39 13 1 42 27 42 39 0 13 -9 14 -32
0z"/>
<path d="M4920 806 c0 -30 -6 -37 -46 -61 l-46 -27 31 -19 c41 -25 47 -24 109
11 70 41 68 64 -10 108 l-38 21 0 -33z"/>
<path d="M1780 800 c0 -24 -7 -35 -31 -48 -64 -36 -65 -37 -25 -60 l37 -22 60
32 c76 42 79 65 13 102 -26 14 -48 26 -50 26 -2 0 -4 -14 -4 -30z"/>
<path d="M142 786 c-91 -52 -121 -28 393 -326 127 -74 275 -160 329 -192 l99
-57 61 34 c69 39 78 56 42 80 -23 15 -27 15 -56 0 l-31 -16 -160 93 c-158 92
-159 93 -159 128 0 30 -5 38 -40 58 -37 21 -42 22 -62 7 -13 -8 -28 -15 -34
-15 -6 0 -81 40 -165 90 -133 77 -155 93 -159 118 l-5 28 -53 -30z"/>
<path d="M3283 789 c-91 -53 -142 -14 512 -394 149 -87 280 -162 292 -167 17
-8 33 -4 82 23 67 37 78 62 35 81 -20 9 -30 9 -52 -5 -28 -16 -29 -15 -187 77
-156 90 -160 93 -165 129 -4 29 -13 42 -39 58 -33 20 -37 20 -68 5 l-32 -15
-160 92 c-139 80 -160 96 -163 119 l-3 27 -52 -30z"/>
<path d="M1300 647 c0 -8 44 -41 97 -72 l97 -58 55 30 c73 40 84 58 52 84
l-24 19 -60 -33 -59 -34 -42 21 c-22 12 -44 26 -48 31 -5 7 -8 7 -8 0 0 -6 -3
-5 -8 1 -12 19 -52 27 -52 11z"/>
<path d="M4450 645 c0 -8 42 -39 94 -70 l93 -56 62 36 c66 39 77 63 37 84 -20
11 -30 9 -80 -19 l-57 -32 -47 23 c-26 13 -49 27 -50 32 -2 4 -8 5 -13 1 -5
-3 -9 0 -9 5 0 6 -7 11 -15 11 -8 0 -15 -7 -15 -15z"/>
<path d="M1140 592 c-36 -21 -66 -46 -68 -56 -3 -15 9 -11 67 20 46 25 71 45
71 57 0 9 -1 17 -2 17 -2 0 -32 -17 -68 -38z"/>
<path d="M4273 592 c-41 -24 -63 -43 -63 -55 0 -18 2 -17 35 2 19 12 51 30 70
42 19 11 35 27 35 35 0 19 -6 17 -77 -24z"/>
<path d="M4371 455 l-74 -43 34 -21 c19 -12 37 -21 41 -21 3 0 31 15 62 33 59
34 70 59 39 83 -10 7 -20 13 -23 13 -3 0 -38 -20 -79 -44z"/>
<path d="M1227 449 l-69 -41 29 -19 c38 -25 47 -24 109 12 54 31 66 53 42 77
-19 19 -39 14 -111 -29z"/>
</g>
</svg>
